<?xml version="1.0" encoding="utf-8"?>
<!-- Generator: Adobe Illustrator 17.1.0, SVG Export Plug-In . SVG Version: 6.00 Build 0)  -->
<!DOCTYPE svg PUBLIC "-//W3C//DTD SVG 1.1//EN" "http://www.w3.org/Graphics/SVG/1.1/DTD/svg11.dtd">
<svg version="1.1" id="Layer_1" xmlns="http://www.w3.org/2000/svg" xmlns:xlink="http://www.w3.org/1999/xlink" x="0px" y="0px"
	 viewBox="11.5 11.5 25 25" enable-background="new 11.5 11.5 25 25" xml:space="preserve">
<g id="RSS">
	<g id="lines__x003C_Group_x003E_">
		<path id="circle" fill="#3D4349" d="M19.8,30.5c0,1.3-1.1,2.4-2.4,2.4c-1.3,0-2.4-1.1-2.4-2.4c0-1.3,1.1-2.4,2.4-2.4
			C18.8,28.1,19.8,29.2,19.8,30.5z"/>
		<g>
			<path fill="#3D4349" d="M15.1,24.5c2.2,0,4.3,0.9,5.9,2.5c1.6,1.6,2.5,3.7,2.5,6h3.4c0-6.6-5.3-11.9-11.8-11.9
				C15.1,21,15.1,24.5,15.1,24.5z"/>
		</g>
		<g>
			<path fill="#3D4349" d="M15.1,18.4c8,0,14.5,6.5,14.5,14.6H33c0-9.9-8-18-17.9-18C15.1,14.9,15.1,18.4,15.1,18.4z"/>
		</g>
	</g>
</g>
</svg>
