<?xml version="1.0" encoding="utf-8"?>
<!-- Generator: Adobe Illustrator 17.1.0, SVG Export Plug-In . SVG Version: 6.00 Build 0)  -->
<!DOCTYPE svg PUBLIC "-//W3C//DTD SVG 1.1//EN" "http://www.w3.org/Graphics/SVG/1.1/DTD/svg11.dtd">
<svg version="1.1" id="Layer_1" xmlns="http://www.w3.org/2000/svg" xmlns:xlink="http://www.w3.org/1999/xlink" x="0px" y="0px"
	 viewBox="11.5 11.5 25 25" enable-background="new 11.5 11.5 25 25" xml:space="preserve">
<g id="Twitter">
	<path fill="#3D4349" d="M33,18.4c-0.6,0.3-1.4,0.5-2.1,0.6c0.7-0.5,1.4-1.2,1.6-2c-0.7,0.4-1.5,0.7-2.3,0.9
		c-0.6-0.7-1.6-1.1-2.7-1.1c-2,0-3.6,1.6-3.6,3.6c0,0.3,0,0.6,0.1,0.8c-3.1-0.2-5.7-1.6-7.6-3.8c-0.3,0.6-0.5,1.2-0.5,1.9
		c0,1.3,0.6,2.4,1.6,3.1c-0.6,0-1.1-0.2-1.7-0.5c0,0,0,0,0,0.1c0,1.8,1.3,3.2,2.9,3.6c-0.3,0.1-0.6,0.2-1,0.2c-0.2,0-0.5,0-0.7-0.1
		c0.5,1.5,1.9,2.5,3.4,2.6c-1.3,1-2.8,1.5-4.5,1.5c-0.3,0-0.6,0-0.9-0.1c1.6,1,3.6,1.6,5.7,1.6c6.8,0,10.4-5.6,10.4-10.4
		c0-0.2,0-0.3,0-0.5C31.9,19.8,32.5,19.2,33,18.4z"/>
</g>
</svg>
