<?xml version="1.0" encoding="utf-8"?>
<!-- Generator: Adobe Illustrator 17.1.0, SVG Export Plug-In . SVG Version: 6.00 Build 0)  -->
<!DOCTYPE svg PUBLIC "-//W3C//DTD SVG 1.1//EN" "http://www.w3.org/Graphics/SVG/1.1/DTD/svg11.dtd">
<svg version="1.1" id="Layer_1" xmlns="http://www.w3.org/2000/svg" xmlns:xlink="http://www.w3.org/1999/xlink" x="0px" y="0px"
	 viewBox="11.5 11.5 25 25" enable-background="new 11.5 11.5 25 25" xml:space="preserve">
<g id="Linkedin">
	<path fill="#3D4349" d="M19.1,32.7V21h-3.9v11.6H19.1L19.1,32.7z M17.2,19.4c1.3,0,2.2-0.9,2.2-2c0-1.2-0.9-2-2.2-2
		c-1.3,0-2.2,0.9-2.2,2S15.9,19.4,17.2,19.4L17.2,19.4L17.2,19.4z"/>
	<path fill="#3D4349" d="M21.3,32.7h3.9v-6.5c0-0.4,0-0.7,0.1-1c0.3-0.7,1-1.4,2-1.4c1.4,0,1.9,1.1,1.9,2.6v6.3H33v-6.7
		c0-3.6-1.9-5.3-4.4-5.3c-2.1,0-3,1.2-3.6,1.9l0,0v-1.7h-3.9C21.4,22.1,21.3,32.7,21.3,32.7L21.3,32.7z"/>
</g>
</svg>
